<?xml version="1.0" encoding="UTF-8" standalone="no"?> <svg xmlns="http://www.w3.org/2000/svg" viewBox="0 0 64 64"><g id="Layer_34" data-name="Layer 34"><path d="M60.67,45.48A4.45,4.45,0,0,0,54.82,43L42.08,47.51a3.57,3.57,0,0,0,.08-.77,4.28,4.28,0,0,0-4.28-4.28h-3.3a18.07,18.07,0,0,1-8.42-2.09,20,20,0,0,0-9.35-2.32h-5V34.5a1,1,0,0,0-1-1H4a1,1,0,0,0-1,1V59a1,1,0,0,0,1,1h6.81a1,1,0,0,0,1-1V56.75a19,19,0,0,1,5.27,1l5.14,1.82a24.71,24.71,0,0,0,8.2,1.4l1,0a24.77,24.77,0,0,0,8.69-2l18.43-7.87A4.47,4.47,0,0,0,60.67,45.48ZM9.81,58H5V35.5H9.81Zm47.92-8.68L39.36,57.17a22.36,22.36,0,0,1-8,1.81,22.76,22.76,0,0,1-8.5-1.27L17.74,55.9a20.78,20.78,0,0,0-5.93-1.15V40.05h5a17.88,17.88,0,0,1,8.41,2.09,20.11,20.11,0,0,0,9.36,2.32h3.3a2.28,2.28,0,0,1,2.28,2.29,2.22,2.22,0,0,1-.79,1.71l-1.68.59H26.78a1,1,0,0,0,0,2h11.1L38,51s.06,0,.18,0h.07l17.27-6.08a2.46,2.46,0,0,1,3.27,1.34A2.47,2.47,0,0,1,57.73,49.33Z"/><path d="M37.61,25.72v1.19a3,3,0,0,0-1.84.81,2.9,2.9,0,0,0-.88,2.07,2.93,2.93,0,0,0,3,2.89h1.51a.93.93,0,0,1,1,.9.88.88,0,0,1-.27.62,1,1,0,0,1-.69.27H36.49a1,1,0,0,0,0,2h1.12v1.17a1,1,0,0,0,2,0V36.45a2.93,2.93,0,0,0,1.83-.81,2.88,2.88,0,0,0,.88-2.06,2.93,2.93,0,0,0-3-2.9H37.85a.93.93,0,0,1-1-.89.89.89,0,0,1,.27-.63,1,1,0,0,1,.69-.27h2.87a1,1,0,0,0,0-2H39.61V25.72a1,1,0,0,0-2,0Z"/><path d="M22.3,21.31a1,1,0,0,0,1-1,2.45,2.45,0,0,1,0-.25h0V20a4.44,4.44,0,0,1,8.86.32,1,1,0,1,0,2,0A4.43,4.43,0,0,1,37.61,16v5.66a10.06,10.06,0,1,0,2,0V16A4.43,4.43,0,0,1,43,20.31a1,1,0,0,0,2,0A4.44,4.44,0,0,1,53.91,20v.32a1,1,0,1,0,2,0V20a17.3,17.3,0,0,0-34.59-.1.13.13,0,0,0,0,.06c0,.12,0,.25,0,.37A1,1,0,0,0,22.3,21.31ZM46.67,31.68a8.07,8.07,0,1,1-8.06-8.07A8.08,8.08,0,0,1,46.67,31.68ZM38.61,5a15.42,15.42,0,0,1,14.3,9.86,6.51,6.51,0,0,0-3.43-1,6.43,6.43,0,0,0-5.44,3,6.42,6.42,0,0,0-10.87,0,6.43,6.43,0,0,0-5.44-3,6.33,6.33,0,0,0-3.41,1A15.39,15.39,0,0,1,38.61,5Z"/></g></svg>